<mxfile host="Electron" modified="2024-04-25T22:44:29.130Z" agent="Mozilla/5.0 (Macintosh; Intel Mac OS X 10_15_7) AppleWebKit/537.36 (KHTML, like Gecko) draw.io/24.2.5 Chrome/120.0.6099.109 Electron/28.1.0 Safari/537.36" etag="ITNw3I8CluuAE5wVyowM" version="24.2.5" type="device">
  <diagram name="Page-1" id="UHWgd6uu3C_Jp23Epes1">
    <mxGraphModel dx="1804" dy="727" grid="1" gridSize="10" guides="1" tooltips="1" connect="1" arrows="1" fold="1" page="1" pageScale="1" pageWidth="850" pageHeight="1100" math="0" shadow="0">
      <root>
        <mxCell id="0" />
        <mxCell id="1" parent="0" />
        <mxCell id="cMsni-zwvsYrsgW6HGZv-1" value="Person" style="swimlane;fontStyle=0;childLayout=stackLayout;horizontal=1;startSize=26;horizontalStack=0;resizeParent=1;resizeParentMax=0;resizeLast=0;collapsible=1;marginBottom=0;align=center;fontSize=14;" vertex="1" parent="1">
          <mxGeometry x="40" y="80" width="160" height="116" as="geometry" />
        </mxCell>
        <mxCell id="cMsni-zwvsYrsgW6HGZv-2" value="ID" style="text;strokeColor=none;fillColor=none;spacingLeft=4;spacingRight=4;overflow=hidden;rotatable=0;points=[[0,0.5],[1,0.5]];portConstraint=eastwest;fontSize=12;whiteSpace=wrap;html=1;fontStyle=4" vertex="1" parent="cMsni-zwvsYrsgW6HGZv-1">
          <mxGeometry y="26" width="160" height="30" as="geometry" />
        </mxCell>
        <mxCell id="cMsni-zwvsYrsgW6HGZv-3" value="county_id" style="text;strokeColor=none;fillColor=none;spacingLeft=4;spacingRight=4;overflow=hidden;rotatable=0;points=[[0,0.5],[1,0.5]];portConstraint=eastwest;fontSize=12;whiteSpace=wrap;html=1;fontStyle=4" vertex="1" parent="cMsni-zwvsYrsgW6HGZv-1">
          <mxGeometry y="56" width="160" height="30" as="geometry" />
        </mxCell>
        <mxCell id="cMsni-zwvsYrsgW6HGZv-4" value="name" style="text;strokeColor=none;fillColor=none;spacingLeft=4;spacingRight=4;overflow=hidden;rotatable=0;points=[[0,0.5],[1,0.5]];portConstraint=eastwest;fontSize=12;whiteSpace=wrap;html=1;" vertex="1" parent="cMsni-zwvsYrsgW6HGZv-1">
          <mxGeometry y="86" width="160" height="30" as="geometry" />
        </mxCell>
        <mxCell id="cMsni-zwvsYrsgW6HGZv-5" value="County" style="swimlane;fontStyle=0;childLayout=stackLayout;horizontal=1;startSize=26;horizontalStack=0;resizeParent=1;resizeParentMax=0;resizeLast=0;collapsible=1;marginBottom=0;align=center;fontSize=14;" vertex="1" parent="1">
          <mxGeometry x="320" y="80" width="160" height="116" as="geometry" />
        </mxCell>
        <mxCell id="cMsni-zwvsYrsgW6HGZv-6" value="&lt;u&gt;county_id&lt;/u&gt;" style="text;strokeColor=none;fillColor=none;spacingLeft=4;spacingRight=4;overflow=hidden;rotatable=0;points=[[0,0.5],[1,0.5]];portConstraint=eastwest;fontSize=12;whiteSpace=wrap;html=1;" vertex="1" parent="cMsni-zwvsYrsgW6HGZv-5">
          <mxGeometry y="26" width="160" height="30" as="geometry" />
        </mxCell>
        <mxCell id="cMsni-zwvsYrsgW6HGZv-7" value="state_id" style="text;strokeColor=none;fillColor=none;spacingLeft=4;spacingRight=4;overflow=hidden;rotatable=0;points=[[0,0.5],[1,0.5]];portConstraint=eastwest;fontSize=12;whiteSpace=wrap;html=1;fontStyle=4" vertex="1" parent="cMsni-zwvsYrsgW6HGZv-5">
          <mxGeometry y="56" width="160" height="30" as="geometry" />
        </mxCell>
        <mxCell id="cMsni-zwvsYrsgW6HGZv-8" value="county_name" style="text;strokeColor=none;fillColor=none;spacingLeft=4;spacingRight=4;overflow=hidden;rotatable=0;points=[[0,0.5],[1,0.5]];portConstraint=eastwest;fontSize=12;whiteSpace=wrap;html=1;" vertex="1" parent="cMsni-zwvsYrsgW6HGZv-5">
          <mxGeometry y="86" width="160" height="30" as="geometry" />
        </mxCell>
        <mxCell id="cMsni-zwvsYrsgW6HGZv-9" value="State" style="swimlane;fontStyle=0;childLayout=stackLayout;horizontal=1;startSize=26;horizontalStack=0;resizeParent=1;resizeParentMax=0;resizeLast=0;collapsible=1;marginBottom=0;align=center;fontSize=14;" vertex="1" parent="1">
          <mxGeometry x="600" y="95" width="160" height="86" as="geometry" />
        </mxCell>
        <mxCell id="cMsni-zwvsYrsgW6HGZv-10" value="state_id" style="text;strokeColor=none;fillColor=none;spacingLeft=4;spacingRight=4;overflow=hidden;rotatable=0;points=[[0,0.5],[1,0.5]];portConstraint=eastwest;fontSize=12;whiteSpace=wrap;html=1;fontStyle=4" vertex="1" parent="cMsni-zwvsYrsgW6HGZv-9">
          <mxGeometry y="26" width="160" height="30" as="geometry" />
        </mxCell>
        <mxCell id="cMsni-zwvsYrsgW6HGZv-11" value="state_name" style="text;strokeColor=none;fillColor=none;spacingLeft=4;spacingRight=4;overflow=hidden;rotatable=0;points=[[0,0.5],[1,0.5]];portConstraint=eastwest;fontSize=12;whiteSpace=wrap;html=1;" vertex="1" parent="cMsni-zwvsYrsgW6HGZv-9">
          <mxGeometry y="56" width="160" height="30" as="geometry" />
        </mxCell>
        <mxCell id="cMsni-zwvsYrsgW6HGZv-14" value="Candidate" style="swimlane;fontStyle=0;childLayout=stackLayout;horizontal=1;startSize=26;horizontalStack=0;resizeParent=1;resizeParentMax=0;resizeLast=0;collapsible=1;marginBottom=0;align=center;fontSize=14;" vertex="1" parent="1">
          <mxGeometry x="-160" y="280" width="160" height="86" as="geometry" />
        </mxCell>
        <mxCell id="cMsni-zwvsYrsgW6HGZv-15" value="candidate_id" style="text;strokeColor=none;fillColor=none;spacingLeft=4;spacingRight=4;overflow=hidden;rotatable=0;points=[[0,0.5],[1,0.5]];portConstraint=eastwest;fontSize=12;whiteSpace=wrap;html=1;fontStyle=4" vertex="1" parent="cMsni-zwvsYrsgW6HGZv-14">
          <mxGeometry y="26" width="160" height="30" as="geometry" />
        </mxCell>
        <mxCell id="cMsni-zwvsYrsgW6HGZv-16" value="platform" style="text;strokeColor=none;fillColor=none;spacingLeft=4;spacingRight=4;overflow=hidden;rotatable=0;points=[[0,0.5],[1,0.5]];portConstraint=eastwest;fontSize=12;whiteSpace=wrap;html=1;" vertex="1" parent="cMsni-zwvsYrsgW6HGZv-14">
          <mxGeometry y="56" width="160" height="30" as="geometry" />
        </mxCell>
        <mxCell id="cMsni-zwvsYrsgW6HGZv-18" value="Voter" style="swimlane;fontStyle=0;childLayout=stackLayout;horizontal=1;startSize=26;horizontalStack=0;resizeParent=1;resizeParentMax=0;resizeLast=0;collapsible=1;marginBottom=0;align=center;fontSize=14;" vertex="1" parent="1">
          <mxGeometry x="120" y="320" width="160" height="56" as="geometry" />
        </mxCell>
        <mxCell id="cMsni-zwvsYrsgW6HGZv-19" value="&lt;u&gt;voter_id&lt;/u&gt;" style="text;strokeColor=none;fillColor=none;spacingLeft=4;spacingRight=4;overflow=hidden;rotatable=0;points=[[0,0.5],[1,0.5]];portConstraint=eastwest;fontSize=12;whiteSpace=wrap;html=1;" vertex="1" parent="cMsni-zwvsYrsgW6HGZv-18">
          <mxGeometry y="26" width="160" height="30" as="geometry" />
        </mxCell>
        <mxCell id="cMsni-zwvsYrsgW6HGZv-22" value="Runs" style="swimlane;fontStyle=0;childLayout=stackLayout;horizontal=1;startSize=26;horizontalStack=0;resizeParent=1;resizeParentMax=0;resizeLast=0;collapsible=1;marginBottom=0;align=center;fontSize=14;" vertex="1" parent="1">
          <mxGeometry x="-200" y="480" width="160" height="116" as="geometry" />
        </mxCell>
        <mxCell id="cMsni-zwvsYrsgW6HGZv-23" value="&lt;u&gt;candidate_id&lt;/u&gt;" style="text;strokeColor=none;fillColor=none;spacingLeft=4;spacingRight=4;overflow=hidden;rotatable=0;points=[[0,0.5],[1,0.5]];portConstraint=eastwest;fontSize=12;whiteSpace=wrap;html=1;" vertex="1" parent="cMsni-zwvsYrsgW6HGZv-22">
          <mxGeometry y="26" width="160" height="30" as="geometry" />
        </mxCell>
        <mxCell id="cMsni-zwvsYrsgW6HGZv-24" value="&lt;u&gt;contest_id&lt;/u&gt;" style="text;strokeColor=none;fillColor=none;spacingLeft=4;spacingRight=4;overflow=hidden;rotatable=0;points=[[0,0.5],[1,0.5]];portConstraint=eastwest;fontSize=12;whiteSpace=wrap;html=1;" vertex="1" parent="cMsni-zwvsYrsgW6HGZv-22">
          <mxGeometry y="56" width="160" height="30" as="geometry" />
        </mxCell>
        <mxCell id="cMsni-zwvsYrsgW6HGZv-25" value="tally" style="text;strokeColor=none;fillColor=none;spacingLeft=4;spacingRight=4;overflow=hidden;rotatable=0;points=[[0,0.5],[1,0.5]];portConstraint=eastwest;fontSize=12;whiteSpace=wrap;html=1;" vertex="1" parent="cMsni-zwvsYrsgW6HGZv-22">
          <mxGeometry y="86" width="160" height="30" as="geometry" />
        </mxCell>
        <mxCell id="cMsni-zwvsYrsgW6HGZv-26" value="Voted" style="swimlane;fontStyle=0;childLayout=stackLayout;horizontal=1;startSize=26;horizontalStack=0;resizeParent=1;resizeParentMax=0;resizeLast=0;collapsible=1;marginBottom=0;align=center;fontSize=14;" vertex="1" parent="1">
          <mxGeometry x="160" y="444" width="160" height="86" as="geometry" />
        </mxCell>
        <mxCell id="cMsni-zwvsYrsgW6HGZv-27" value="voter_id" style="text;strokeColor=none;fillColor=none;spacingLeft=4;spacingRight=4;overflow=hidden;rotatable=0;points=[[0,0.5],[1,0.5]];portConstraint=eastwest;fontSize=12;whiteSpace=wrap;html=1;fontStyle=4" vertex="1" parent="cMsni-zwvsYrsgW6HGZv-26">
          <mxGeometry y="26" width="160" height="30" as="geometry" />
        </mxCell>
        <mxCell id="cMsni-zwvsYrsgW6HGZv-28" value="contest_id" style="text;strokeColor=none;fillColor=none;spacingLeft=4;spacingRight=4;overflow=hidden;rotatable=0;points=[[0,0.5],[1,0.5]];portConstraint=eastwest;fontSize=12;whiteSpace=wrap;html=1;fontStyle=4" vertex="1" parent="cMsni-zwvsYrsgW6HGZv-26">
          <mxGeometry y="56" width="160" height="30" as="geometry" />
        </mxCell>
        <mxCell id="cMsni-zwvsYrsgW6HGZv-30" value="Contest" style="swimlane;fontStyle=0;childLayout=stackLayout;horizontal=1;startSize=26;horizontalStack=0;resizeParent=1;resizeParentMax=0;resizeLast=0;collapsible=1;marginBottom=0;align=center;fontSize=14;" vertex="1" parent="1">
          <mxGeometry x="520" y="520" width="160" height="116" as="geometry" />
        </mxCell>
        <mxCell id="cMsni-zwvsYrsgW6HGZv-31" value="contest_id" style="text;strokeColor=none;fillColor=none;spacingLeft=4;spacingRight=4;overflow=hidden;rotatable=0;points=[[0,0.5],[1,0.5]];portConstraint=eastwest;fontSize=12;whiteSpace=wrap;html=1;fontStyle=4" vertex="1" parent="cMsni-zwvsYrsgW6HGZv-30">
          <mxGeometry y="26" width="160" height="30" as="geometry" />
        </mxCell>
        <mxCell id="cMsni-zwvsYrsgW6HGZv-32" value="election_id" style="text;strokeColor=none;fillColor=none;spacingLeft=4;spacingRight=4;overflow=hidden;rotatable=0;points=[[0,0.5],[1,0.5]];portConstraint=eastwest;fontSize=12;whiteSpace=wrap;html=1;" vertex="1" parent="cMsni-zwvsYrsgW6HGZv-30">
          <mxGeometry y="56" width="160" height="30" as="geometry" />
        </mxCell>
        <mxCell id="cMsni-zwvsYrsgW6HGZv-33" value="description" style="text;strokeColor=none;fillColor=none;spacingLeft=4;spacingRight=4;overflow=hidden;rotatable=0;points=[[0,0.5],[1,0.5]];portConstraint=eastwest;fontSize=12;whiteSpace=wrap;html=1;" vertex="1" parent="cMsni-zwvsYrsgW6HGZv-30">
          <mxGeometry y="86" width="160" height="30" as="geometry" />
        </mxCell>
        <mxCell id="cMsni-zwvsYrsgW6HGZv-34" value="Local Contest" style="swimlane;fontStyle=0;childLayout=stackLayout;horizontal=1;startSize=26;horizontalStack=0;resizeParent=1;resizeParentMax=0;resizeLast=0;collapsible=1;marginBottom=0;align=center;fontSize=14;" vertex="1" parent="1">
          <mxGeometry x="400" y="280" width="160" height="86" as="geometry" />
        </mxCell>
        <mxCell id="cMsni-zwvsYrsgW6HGZv-35" value="&lt;u&gt;contest_id&lt;/u&gt;" style="text;strokeColor=none;fillColor=none;spacingLeft=4;spacingRight=4;overflow=hidden;rotatable=0;points=[[0,0.5],[1,0.5]];portConstraint=eastwest;fontSize=12;whiteSpace=wrap;html=1;" vertex="1" parent="cMsni-zwvsYrsgW6HGZv-34">
          <mxGeometry y="26" width="160" height="30" as="geometry" />
        </mxCell>
        <mxCell id="cMsni-zwvsYrsgW6HGZv-36" value="county_id" style="text;strokeColor=none;fillColor=none;spacingLeft=4;spacingRight=4;overflow=hidden;rotatable=0;points=[[0,0.5],[1,0.5]];portConstraint=eastwest;fontSize=12;whiteSpace=wrap;html=1;" vertex="1" parent="cMsni-zwvsYrsgW6HGZv-34">
          <mxGeometry y="56" width="160" height="30" as="geometry" />
        </mxCell>
        <mxCell id="cMsni-zwvsYrsgW6HGZv-38" value="State Contest" style="swimlane;fontStyle=0;childLayout=stackLayout;horizontal=1;startSize=26;horizontalStack=0;resizeParent=1;resizeParentMax=0;resizeLast=0;collapsible=1;marginBottom=0;align=center;fontSize=14;" vertex="1" parent="1">
          <mxGeometry x="720" y="280" width="160" height="86" as="geometry" />
        </mxCell>
        <mxCell id="cMsni-zwvsYrsgW6HGZv-39" value="contest_id" style="text;strokeColor=none;fillColor=none;spacingLeft=4;spacingRight=4;overflow=hidden;rotatable=0;points=[[0,0.5],[1,0.5]];portConstraint=eastwest;fontSize=12;whiteSpace=wrap;html=1;fontStyle=4" vertex="1" parent="cMsni-zwvsYrsgW6HGZv-38">
          <mxGeometry y="26" width="160" height="30" as="geometry" />
        </mxCell>
        <mxCell id="cMsni-zwvsYrsgW6HGZv-40" value="state_id" style="text;strokeColor=none;fillColor=none;spacingLeft=4;spacingRight=4;overflow=hidden;rotatable=0;points=[[0,0.5],[1,0.5]];portConstraint=eastwest;fontSize=12;whiteSpace=wrap;html=1;" vertex="1" parent="cMsni-zwvsYrsgW6HGZv-38">
          <mxGeometry y="56" width="160" height="30" as="geometry" />
        </mxCell>
        <mxCell id="cMsni-zwvsYrsgW6HGZv-42" value="Election" style="swimlane;fontStyle=0;childLayout=stackLayout;horizontal=1;startSize=26;horizontalStack=0;resizeParent=1;resizeParentMax=0;resizeLast=0;collapsible=1;marginBottom=0;align=center;fontSize=14;" vertex="1" parent="1">
          <mxGeometry x="960" y="520" width="160" height="86" as="geometry" />
        </mxCell>
        <mxCell id="cMsni-zwvsYrsgW6HGZv-43" value="election_id" style="text;strokeColor=none;fillColor=none;spacingLeft=4;spacingRight=4;overflow=hidden;rotatable=0;points=[[0,0.5],[1,0.5]];portConstraint=eastwest;fontSize=12;whiteSpace=wrap;html=1;fontStyle=4" vertex="1" parent="cMsni-zwvsYrsgW6HGZv-42">
          <mxGeometry y="26" width="160" height="30" as="geometry" />
        </mxCell>
        <mxCell id="cMsni-zwvsYrsgW6HGZv-44" value="description" style="text;strokeColor=none;fillColor=none;spacingLeft=4;spacingRight=4;overflow=hidden;rotatable=0;points=[[0,0.5],[1,0.5]];portConstraint=eastwest;fontSize=12;whiteSpace=wrap;html=1;" vertex="1" parent="cMsni-zwvsYrsgW6HGZv-42">
          <mxGeometry y="56" width="160" height="30" as="geometry" />
        </mxCell>
        <mxCell id="cMsni-zwvsYrsgW6HGZv-46" value="National Contest" style="swimlane;fontStyle=0;childLayout=stackLayout;horizontal=1;startSize=26;horizontalStack=0;resizeParent=1;resizeParentMax=0;resizeLast=0;collapsible=1;marginBottom=0;align=center;fontSize=14;" vertex="1" parent="1">
          <mxGeometry x="1040" y="280" width="160" height="56" as="geometry" />
        </mxCell>
        <mxCell id="cMsni-zwvsYrsgW6HGZv-47" value="contest_id" style="text;strokeColor=none;fillColor=none;spacingLeft=4;spacingRight=4;overflow=hidden;rotatable=0;points=[[0,0.5],[1,0.5]];portConstraint=eastwest;fontSize=12;whiteSpace=wrap;html=1;fontStyle=4" vertex="1" parent="cMsni-zwvsYrsgW6HGZv-46">
          <mxGeometry y="26" width="160" height="30" as="geometry" />
        </mxCell>
        <mxCell id="cMsni-zwvsYrsgW6HGZv-52" style="edgeStyle=orthogonalEdgeStyle;rounded=0;orthogonalLoop=1;jettySize=auto;html=1;entryX=0;entryY=0.5;entryDx=0;entryDy=0;" edge="1" parent="1" source="cMsni-zwvsYrsgW6HGZv-7" target="cMsni-zwvsYrsgW6HGZv-10">
          <mxGeometry relative="1" as="geometry" />
        </mxCell>
        <mxCell id="cMsni-zwvsYrsgW6HGZv-59" style="edgeStyle=orthogonalEdgeStyle;rounded=0;orthogonalLoop=1;jettySize=auto;html=1;entryX=0;entryY=0.5;entryDx=0;entryDy=0;" edge="1" parent="1" source="cMsni-zwvsYrsgW6HGZv-28" target="cMsni-zwvsYrsgW6HGZv-31">
          <mxGeometry relative="1" as="geometry" />
        </mxCell>
        <mxCell id="cMsni-zwvsYrsgW6HGZv-60" style="edgeStyle=orthogonalEdgeStyle;rounded=0;orthogonalLoop=1;jettySize=auto;html=1;entryX=-0.012;entryY=0.2;entryDx=0;entryDy=0;entryPerimeter=0;" edge="1" parent="1" source="cMsni-zwvsYrsgW6HGZv-35" target="cMsni-zwvsYrsgW6HGZv-31">
          <mxGeometry relative="1" as="geometry" />
        </mxCell>
        <mxCell id="cMsni-zwvsYrsgW6HGZv-62" style="edgeStyle=orthogonalEdgeStyle;rounded=0;orthogonalLoop=1;jettySize=auto;html=1;exitX=0;exitY=0.5;exitDx=0;exitDy=0;entryX=0;entryY=0.5;entryDx=0;entryDy=0;" edge="1" parent="1" source="cMsni-zwvsYrsgW6HGZv-19" target="cMsni-zwvsYrsgW6HGZv-2">
          <mxGeometry relative="1" as="geometry">
            <Array as="points">
              <mxPoint x="120" y="350" />
              <mxPoint x="20" y="350" />
              <mxPoint x="20" y="121" />
            </Array>
          </mxGeometry>
        </mxCell>
        <mxCell id="cMsni-zwvsYrsgW6HGZv-63" style="edgeStyle=orthogonalEdgeStyle;rounded=0;orthogonalLoop=1;jettySize=auto;html=1;entryX=0;entryY=0.25;entryDx=0;entryDy=0;" edge="1" parent="1" source="cMsni-zwvsYrsgW6HGZv-15" target="cMsni-zwvsYrsgW6HGZv-1">
          <mxGeometry relative="1" as="geometry">
            <Array as="points">
              <mxPoint x="-170" y="321" />
              <mxPoint x="-170" y="109" />
            </Array>
          </mxGeometry>
        </mxCell>
        <mxCell id="cMsni-zwvsYrsgW6HGZv-64" style="edgeStyle=orthogonalEdgeStyle;rounded=0;orthogonalLoop=1;jettySize=auto;html=1;entryX=0;entryY=0.5;entryDx=0;entryDy=0;" edge="1" parent="1" source="cMsni-zwvsYrsgW6HGZv-27" target="cMsni-zwvsYrsgW6HGZv-19">
          <mxGeometry relative="1" as="geometry" />
        </mxCell>
        <mxCell id="cMsni-zwvsYrsgW6HGZv-66" style="edgeStyle=orthogonalEdgeStyle;rounded=0;orthogonalLoop=1;jettySize=auto;html=1;entryX=-0.037;entryY=0.767;entryDx=0;entryDy=0;entryPerimeter=0;exitX=0;exitY=0.5;exitDx=0;exitDy=0;" edge="1" parent="1" source="cMsni-zwvsYrsgW6HGZv-23" target="cMsni-zwvsYrsgW6HGZv-15">
          <mxGeometry relative="1" as="geometry">
            <Array as="points">
              <mxPoint x="-200" y="520" />
              <mxPoint x="-210" y="520" />
              <mxPoint x="-210" y="408" />
              <mxPoint x="-180" y="408" />
              <mxPoint x="-180" y="329" />
            </Array>
          </mxGeometry>
        </mxCell>
        <mxCell id="cMsni-zwvsYrsgW6HGZv-67" style="edgeStyle=orthogonalEdgeStyle;rounded=0;orthogonalLoop=1;jettySize=auto;html=1;entryX=-0.006;entryY=0.9;entryDx=0;entryDy=0;entryPerimeter=0;" edge="1" parent="1" source="cMsni-zwvsYrsgW6HGZv-24" target="cMsni-zwvsYrsgW6HGZv-31">
          <mxGeometry relative="1" as="geometry" />
        </mxCell>
        <mxCell id="cMsni-zwvsYrsgW6HGZv-68" style="edgeStyle=orthogonalEdgeStyle;rounded=0;orthogonalLoop=1;jettySize=auto;html=1;entryX=0;entryY=0.5;entryDx=0;entryDy=0;" edge="1" parent="1" source="cMsni-zwvsYrsgW6HGZv-32" target="cMsni-zwvsYrsgW6HGZv-43">
          <mxGeometry relative="1" as="geometry" />
        </mxCell>
        <mxCell id="cMsni-zwvsYrsgW6HGZv-70" style="edgeStyle=orthogonalEdgeStyle;rounded=0;orthogonalLoop=1;jettySize=auto;html=1;entryX=1;entryY=0.5;entryDx=0;entryDy=0;exitX=0;exitY=0.5;exitDx=0;exitDy=0;" edge="1" parent="1" source="cMsni-zwvsYrsgW6HGZv-47" target="cMsni-zwvsYrsgW6HGZv-31">
          <mxGeometry relative="1" as="geometry">
            <mxPoint x="1030" y="320" as="sourcePoint" />
            <mxPoint x="690" y="510" as="targetPoint" />
            <Array as="points">
              <mxPoint x="1040" y="320" />
              <mxPoint x="950" y="320" />
              <mxPoint x="950" y="530" />
              <mxPoint x="790" y="530" />
              <mxPoint x="790" y="580" />
              <mxPoint x="700" y="580" />
              <mxPoint x="700" y="561" />
            </Array>
          </mxGeometry>
        </mxCell>
        <mxCell id="cMsni-zwvsYrsgW6HGZv-71" style="edgeStyle=orthogonalEdgeStyle;rounded=0;orthogonalLoop=1;jettySize=auto;html=1;entryX=1;entryY=0.5;entryDx=0;entryDy=0;" edge="1" parent="1" target="cMsni-zwvsYrsgW6HGZv-10">
          <mxGeometry relative="1" as="geometry">
            <mxPoint x="880" y="351" as="sourcePoint" />
            <mxPoint x="923.04" y="129.01" as="targetPoint" />
            <Array as="points">
              <mxPoint x="910" y="351" />
              <mxPoint x="910" y="136" />
            </Array>
          </mxGeometry>
        </mxCell>
        <mxCell id="cMsni-zwvsYrsgW6HGZv-72" style="edgeStyle=orthogonalEdgeStyle;rounded=0;orthogonalLoop=1;jettySize=auto;html=1;entryX=1.031;entryY=0.167;entryDx=0;entryDy=0;entryPerimeter=0;" edge="1" parent="1" source="cMsni-zwvsYrsgW6HGZv-39" target="cMsni-zwvsYrsgW6HGZv-31">
          <mxGeometry relative="1" as="geometry" />
        </mxCell>
        <mxCell id="cMsni-zwvsYrsgW6HGZv-73" style="edgeStyle=orthogonalEdgeStyle;rounded=0;orthogonalLoop=1;jettySize=auto;html=1;entryX=-0.012;entryY=0.167;entryDx=0;entryDy=0;entryPerimeter=0;" edge="1" parent="1" source="cMsni-zwvsYrsgW6HGZv-3" target="cMsni-zwvsYrsgW6HGZv-6">
          <mxGeometry relative="1" as="geometry" />
        </mxCell>
        <mxCell id="cMsni-zwvsYrsgW6HGZv-74" style="edgeStyle=orthogonalEdgeStyle;rounded=0;orthogonalLoop=1;jettySize=auto;html=1;entryX=0;entryY=0.5;entryDx=0;entryDy=0;" edge="1" parent="1" source="cMsni-zwvsYrsgW6HGZv-36" target="cMsni-zwvsYrsgW6HGZv-6">
          <mxGeometry relative="1" as="geometry" />
        </mxCell>
      </root>
    </mxGraphModel>
  </diagram>
</mxfile>
